<svg xmlns="http://www.w3.org/2000/svg" viewBox="0 0 580 580"><title>circle</title><path d="M297,9C136.84,9,7,138.84,7,299S136.84,589,297,589,587,459.16,587,299,457.16,9,297,9Zm-.46,559.12C147.65,568.12,27,447.42,27,298.54S147.65,29,296.54,29s269.58,120.7,269.58,269.58S445.42,568.12,296.54,568.12Z" transform="translate(-7 -9)" fill="#fff" fill-rule="evenodd" opacity="0.03"/><path d="M296.5,63.5a234.91,234.91,0,0,0-205,120h24.08A213.65,213.65,0,0,1,296.12,84.31c118.08,0,213.81,95.73,213.81,213.81S414.21,511.94,296.12,511.94A213.65,213.65,0,0,1,116,413.37v.13H91.53a234.91,234.91,0,0,0,205,120c129.79,0,235-105.21,235-235S426.29,63.5,296.5,63.5Z" transform="translate(-7 -9)" fill="#fff" fill-rule="evenodd" opacity="0.03"/><path d="M430.1,381.5a157.67,157.67,0,1,1,.36-166h25.79a180,180,0,1,0,0,166Z" transform="translate(-7 -9)" fill="#fff" fill-rule="evenodd" opacity="0.03"/></svg>