<?xml version="1.0" encoding="utf-8"?>
<!-- Generator: Adobe Illustrator 19.2.1, SVG Export Plug-In . SVG Version: 6.00 Build 0)  -->
<svg version="1.1" id="Layer_1" xmlns="http://www.w3.org/2000/svg" xmlns:xlink="http://www.w3.org/1999/xlink" x="0px" y="0px"
	 viewBox="0 0 154 49" style="enable-background:new 0 0 154 49;" xml:space="preserve">
<style type="text/css">
	.st0{fill:#222427;}
	.st1{fill:#AE2631;}
	.st2{fill:#222527;}
	.st3{fill-rule:evenodd;clip-rule:evenodd;fill:#FFFFFF;}
	.st4{fill:#FFFFFF;}
</style>
<g>
	<g>
		<path class="st0" d="M42.4,37.6l-7.6-18.4c-0.1-0.2-0.2-0.5-0.2-0.7c0-0.4,0.2-0.8,0.5-1.1c0.3-0.3,0.7-0.5,1.1-0.5
			s0.8,0.2,1.1,0.5c0.2,0.2,0.3,0.4,0.4,0.6l6.4,15.5L50.6,18c0.1-0.2,0.2-0.4,0.4-0.6c0.3-0.3,0.7-0.5,1.1-0.5s0.8,0.2,1.1,0.5
			c0.3,0.3,0.5,0.7,0.5,1.1c0,0.3-0.1,0.5-0.2,0.7L41.6,47.7c-0.1,0.2-0.2,0.4-0.4,0.6c-0.3,0.3-0.7,0.5-1.1,0.5s-0.8-0.2-1.1-0.5
			c-0.3-0.3-0.5-0.7-0.5-1.1c0-0.3,0.1-0.5,0.2-0.7L42.4,37.6z"/>
		<path class="st0" d="M54.8,18.5c0-0.4,0.2-0.8,0.5-1.1c0.3-0.3,0.7-0.5,1.1-0.5s0.8,0.2,1.1,0.5c0.3,0.3,0.5,0.7,0.5,1.1v1.3
			c2-1.9,4.4-2.9,7.2-2.9c2.9,0,5.3,1,7.3,3c2,2,3,4.5,3,7.3v10.4c0,0.4-0.2,0.8-0.5,1.1c-0.3,0.3-0.7,0.5-1.1,0.5s-0.8-0.2-1.1-0.5
			c-0.3-0.3-0.5-0.7-0.5-1.1V27.3c0-2-0.7-3.7-2.1-5.1c-1.4-1.4-3.1-2.1-5.1-2.1s-3.7,0.7-5.1,2.1c-1.4,1.4-2.1,3.1-2.1,5.1v10.4
			c0,0.4-0.2,0.8-0.5,1.1s-0.7,0.5-1.1,0.5s-0.8-0.2-1.1-0.5c-0.3-0.3-0.5-0.7-0.5-1.1V18.5z"/>
		<path class="st0" d="M99,28.1c0,3.1-1.1,5.7-3.3,7.9s-4.8,3.3-7.9,3.3c-3.1,0-5.7-1.1-7.9-3.3c-2.2-2.2-3.3-4.8-3.3-7.9
			c0-3.1,1.1-5.7,3.3-7.9c2.2-2.2,4.8-3.3,7.9-3.3c3.1,0,5.7,1.1,7.9,3.3C97.9,22.4,99,25,99,28.1z M87.8,20.1
			c-2.2,0-4.1,0.8-5.6,2.3s-2.3,3.4-2.3,5.6s0.8,4.1,2.3,5.6s3.4,2.3,5.6,2.3s4.1-0.8,5.6-2.3s2.3-3.4,2.3-5.6S95,24,93.5,22.4
			S90,20.1,87.8,20.1z"/>
		<path class="st0" d="M111.6,38.8c-0.3,0.3-0.7,0.4-1.1,0.4c-0.5,0-0.8-0.2-1.1-0.5c-0.1-0.1-0.2-0.2-0.3-0.4l-8.8-19.2
			c-0.1-0.2-0.1-0.4-0.1-0.6c0-0.4,0.2-0.8,0.5-1.1c0.3-0.3,0.7-0.5,1.1-0.5c0.4,0,0.8,0.2,1.1,0.5c0.1,0.1,0.2,0.2,0.3,0.4l7.3,16
			l7.3-16c0.1-0.2,0.2-0.3,0.3-0.4c0.3-0.3,0.7-0.5,1.1-0.5c0.4,0,0.8,0.2,1.1,0.5c0.3,0.3,0.5,0.7,0.5,1.1c0,0.2,0,0.4-0.1,0.6
			l-8.8,19.2C111.8,38.5,111.7,38.7,111.6,38.8z"/>
		<path class="st0" d="M123.6,18.5c0-0.4,0.2-0.8,0.5-1.1c0.3-0.3,0.7-0.5,1.1-0.5c0.4,0,0.8,0.2,1.1,0.5c0.3,0.3,0.5,0.7,0.5,1.1
			v19.1c0,0.4-0.2,0.8-0.5,1.1c-0.3,0.3-0.7,0.5-1.1,0.5c-0.4,0-0.8-0.2-1.1-0.5c-0.3-0.3-0.5-0.7-0.5-1.1V18.5z"/>
		<path class="st0" d="M148.6,8.9c0-0.4,0.2-0.8,0.5-1.1c0.3-0.3,0.7-0.5,1.1-0.5c0.4,0,0.8,0.2,1.1,0.5c0.3,0.3,0.5,0.7,0.5,1.1
			v19.2c0,3.1-1.1,5.7-3.3,7.9s-4.8,3.3-7.9,3.3c-3.1,0-5.7-1.1-7.9-3.3c-2.2-2.2-3.3-4.8-3.3-7.9c0-3.1,1.1-5.7,3.3-7.9
			c2.2-2.2,4.8-3.3,7.9-3.3c3.1,0,5.7,1.1,7.9,3.3c0,0,0.1,0.1,0.1,0.1V8.9z M148.6,28.1c0-2.2-0.8-4.1-2.3-5.6s-3.4-2.3-5.6-2.3
			s-4.1,0.8-5.6,2.3s-2.3,3.4-2.3,5.6s0.8,4.1,2.3,5.6s3.4,2.3,5.6,2.3s4.1-0.8,5.6-2.3S148.6,30.3,148.6,28.1z"/>
		<path class="st1" d="M127.9,11.6c0,0.8-0.3,1.4-0.8,2c-0.5,0.5-1.2,0.8-2,0.8c-0.8,0-1.4-0.3-2-0.8c-0.5-0.5-0.8-1.2-0.8-2
			c0-0.8,0.3-1.4,0.8-2c0.5-0.5,1.2-0.8,2-0.8c0.8,0,1.4,0.3,2,0.8C127.7,10.2,127.9,10.9,127.9,11.6z"/>
	</g>
	<g>
		<path class="st2" d="M28.2,2.4c0-0.6,0.2-1,0.6-1.4c0.4-0.4,0.9-0.6,1.4-0.6s1,0.2,1.4,0.6c0.4,0.4,0.6,0.9,0.6,1.4v24.4
			c0,3.9-1.4,7.3-4.2,10.1C25.3,39.6,21.9,41,18,41c-3.9,0-7.3-1.4-10.1-4.2c-2.8-2.8-4.2-6.1-4.2-10.1c0-3.9,1.4-7.3,4.2-10.1
			c2.8-2.8,6.1-4.2,10.1-4.2c3.9,0,7.3,1.4,10.1,4.2c0,0,0.1,0.1,0.1,0.1V2.4z M28.2,26.8c0-2.8-1-5.2-3-7.2s-4.4-3-7.2-3
			c-2.8,0-5.2,1-7.2,3s-3,4.4-3,7.2c0,2.8,1,5.2,3,7.2s4.4,3,7.2,3c2.8,0,5.2-1,7.2-3S28.2,29.6,28.2,26.8z"/>
	</g>
	<path class="st3" d="M17.1,15c6.3,0,11.3,5.1,11.3,11.5s-5.1,11.5-11.3,11.5c-6.3,0-11.3-5.1-11.3-11.5S10.8,15,17.1,15z"/>
	<path class="st3" d="M2.2,32.7h16.4V22.3H2.2V32.7z"/>
	<path class="st1" d="M19.7,31.6c-5.8,3-8.7,1.5-8.7-4.4c0-5.9,2.9-7.4,8.7-4.4C25.5,25.7,25.5,28.6,19.7,31.6z"/>
	<path class="st4" d="M18.7,29.5c-3.1,1.6-4.7,0.8-4.7-2.4c0-3.1,1.6-3.9,4.7-2.4C21.8,26.4,21.8,28,18.7,29.5z"/>
</g>
</svg>
