<?xml version="1.0" standalone="no"?>
<!DOCTYPE svg PUBLIC "-//W3C//DTD SVG 20010904//EN"
 "http://www.w3.org/TR/2001/REC-SVG-20010904/DTD/svg10.dtd">
<svg version="1.0" xmlns="http://www.w3.org/2000/svg"
 width="700.000000pt" height="700.000000pt" viewBox="0 0 700.000000 700.000000"
 preserveAspectRatio="xMidYMid meet">
<metadata>
Created by potrace 1.11, written by Peter Selinger 2001-2013
</metadata>
<g transform="translate(0.000000,700.000000) scale(0.100000,-0.100000)"
fill="#000000" stroke="none">
<path d="M1860 6579 c-254 -26 -517 -108 -720 -226 -155 -90 -349 -263 -466
-418 -234 -310 -400 -721 -489 -1214 -26 -146 -31 -178 -50 -321 -12 -92 -14
-117 -20 -195 -4 -44 -8 -91 -10 -104 -23 -147 -23 -954 0 -1191 2 -19 6 -70
9 -114 4 -43 8 -93 11 -110 2 -17 7 -53 10 -81 3 -27 8 -63 10 -80 3 -16 7
-47 10 -67 11 -79 16 -114 21 -129 2 -9 7 -34 10 -55 5 -41 57 -267 74 -324 6
-19 13 -44 15 -55 11 -50 82 -250 122 -345 116 -271 249 -476 428 -655 126
-125 244 -212 401 -291 103 -52 262 -114 330 -129 10 -2 51 -10 89 -19 169
-36 273 -44 505 -41 113 2 223 6 245 9 39 6 159 22 222 30 18 3 40 7 50 10 10
3 36 7 58 11 68 10 324 74 465 116 582 174 1262 482 1977 895 257 149 568 360
817 554 210 164 391 345 605 605 42 52 138 211 186 310 50 101 95 225 109 300
4 17 9 41 12 55 11 55 20 179 18 250 -25 635 -557 1255 -1619 1887 -190 113
-351 201 -640 348 -469 239 -833 399 -1190 525 -49 17 -101 35 -115 40 -188
66 -559 159 -740 185 -19 3 -51 8 -70 11 -19 3 -51 8 -70 10 -19 3 -48 7 -65
10 -57 9 -460 11 -545 3z m1130 -1400 c204 -26 415 -80 658 -170 181 -67 437
-181 537 -239 44 -26 120 -70 168 -99 421 -245 762 -560 892 -826 64 -129 84
-216 80 -345 -1 -58 -5 -114 -8 -125 -79 -308 -323 -572 -797 -860 -96 -59
-556 -295 -685 -352 -136 -61 -160 -71 -185 -78 -14 -4 -29 -11 -35 -15 -16
-12 -272 -96 -361 -119 -142 -36 -222 -51 -359 -67 -42 -5 -236 -5 -260 0 -11
2 -47 7 -80 11 -132 16 -311 91 -415 173 -40 32 -120 112 -158 157 -29 34 -91
133 -122 195 -77 152 -159 444 -175 620 -2 19 -6 49 -8 65 -11 61 -20 245 -21
415 -3 277 19 536 60 710 3 14 8 35 10 46 10 54 58 205 88 278 201 486 602
699 1176 625z"/>
</g>
</svg>
