<?xml version="1.0" encoding="utf-8"?><!DOCTYPE svg PUBLIC "-//W3C//DTD SVG 1.1//EN" "http://www.w3.org/Graphics/SVG/1.1/DTD/svg11.dtd"><svg width="293" height="273" viewBox="0 0 293 273" xmlns="http://www.w3.org/2000/svg" xmlns:xlink="http://www.w3.org/1999/xlink"><svg id="close" viewBox="-5 -5 38 38" width="38" height="38"><style>.ast0{fill:#4d86bb}</style><path class="ast0" d="M14 0C6.3 0 0 6.3 0 14s6.3 14 14 14 14-6.3 14-14S21.7 0 14 0zm6 17.8L17.8 20s-3.5-3.8-3.8-3.8c-.3 0-3.8 3.8-3.8 3.8L8 17.8s3.8-3.5 3.8-3.8c0-.3-3.8-3.8-3.8-3.8L10.2 8s3.6 3.8 3.8 3.8c.2 0 3.8-3.8 3.8-3.8l2.2 2.2s-3.8 3.5-3.8 3.8c0 .2 3.8 3.8 3.8 3.8z" id="ac142_x"/></svg><svg id="close-hover" viewBox="-5 -5 38 38" width="38" height="38" x="38" y="38"><style>.bst0{fill:#3d6a95}</style><path class="bst0" d="M14 0C6.3 0 0 6.3 0 14s6.3 14 14 14 14-6.3 14-14S21.7 0 14 0zm6 17.8L17.8 20s-3.5-3.8-3.8-3.8c-.3 0-3.8 3.8-3.8 3.8L8 17.8s3.8-3.5 3.8-3.8c0-.3-3.8-3.8-3.8-3.8L10.2 8s3.6 3.8 3.8 3.8c.2 0 3.8-3.8 3.8-3.8l2.2 2.2s-3.8 3.5-3.8 3.8c0 .2 3.8 3.8 3.8 3.8z" id="bc142_x"/></svg><svg id="facebook" viewBox="-5 -5 26 26" width="26" height="26" x="76" y="76"><style>.cst0{fill:#fff}</style><path class="cst0" d="M9.5 3.9c-.1 0-.3.1-.4.2 0 .2-.1.3-.1.5V6h2.5v2.1H9v6.2H6.6V8.1H4.5V6h2.1V4.8c0-.9.3-1.6.8-2.2.6-.6 1.3-.9 2.1-.9h2v2.2h-2z"/></svg><svg id="instagram" viewBox="-5 -5 26 26" width="26" height="26" x="102" y="102"><style>.dst0{fill:#fff}</style><path class="dst0" d="M12.1 2c.5 0 1 .2 1.3.5.4.4.6.8.6 1.4v2h-3c-.7-1-1.7-1.5-3-1.5s-2.3.5-3 1.5H2v-2c0-.5.2-1 .6-1.3.3-.4.7-.6 1.3-.6h8.2zM3.9 14c-.5 0-1-.2-1.3-.6-.4-.3-.6-.8-.6-1.3V7.3h2.4c0 .3-.1.5-.1.7 0 1 .4 1.9 1.1 2.6.7.7 1.6 1 2.6 1s1.8-.4 2.6-1.1 1-1.5 1-2.5c0-.2 0-.5-.1-.7H14v4.8c0 .5-.2 1-.6 1.3-.4.4-.8.6-1.3.6H3.9zm5.7-4.4c-.4.4-1 .7-1.6.7-.6 0-1.1-.2-1.6-.7-.4-.5-.6-1-.6-1.6 0-.6.2-1.2.7-1.6.4-.4.9-.6 1.5-.6s1.1.2 1.6.6c.4.4.7 1 .7 1.6-.1.6-.3 1.1-.7 1.6zm1.8-5.3c0 .1 0 .2.1.2.1.1.1.1.2.1h1c.2 0 .3-.1.3-.3v-1c0-.2-.1-.3-.3-.3h-1c-.2 0-.3.1-.3.3v1z"/></svg><svg id="technology_clock" viewBox="-5 -5 49 49" width="49" height="49" x="128" y="128"><style>.est0{fill:#c5aea4}.est1{fill:#fff}.est2{fill:none;stroke:#c5aea4;stroke-width:1.5;stroke-miterlimit:10}</style><circle class="est0" cx="19.5" cy="19.5" r="19.2"/><circle class="est1" cx="19.5" cy="19.5" r="15.5"/><path class="est2" d="M5.4 19.5h4.7M29.1 19.5h4.6M19.5 33.1v-4.7M19.5 10.6V5.9M13 15.5l6.7 4.9M26.4 11.2L19.2 21"/></svg><svg width="90" height="70" viewBox="-5 -5 90 70" id="thankyou" x="177" y="177"><path fill="#CCE3F7" d="M70.4 13.101c5.122 0 8.454 4.088 8.454 9.132v26.254c0 5.043-2.512 8.783-7.634 8.783H21.366c-5.123 0-10.917-3.74-10.917-8.783V22.232c0-5.044 4.563-9.132 9.685-9.132"/><path fill="#FFF" d="M78.386 19.66L49.931 36.74a9.403 9.403 0 0 1-9.115.049L12.878 19.66"/><path fill="#363636" d="M63.057 57.27H13.202c-5.927 0-12.057-3.705-12.057-9.904V21.11c0-5.862 5.152-10.815 11.253-10.815.944 0 1.71.754 1.71 1.684 0 .931-.766 1.684-1.71 1.684-4.246 0-7.833 3.411-7.833 7.448v26.255c0 4.037 4.482 6.537 8.637 6.537h49.854c4.127 0 6.494-2.383 6.494-6.537V21.11c0-4.246-3.021-7.448-7.03-7.448-.944 0-1.71-.753-1.71-1.684 0-.93.766-1.684 1.71-1.684 5.958 0 10.45 4.649 10.45 10.815v26.255c.001 6.017-3.891 9.906-9.913 9.906z"/><path fill="#363636" d="M37.301 37.943a11.06 11.06 0 0 1-5.321-1.354L3.971 19.418a1.668 1.668 0 0 1-.548-2.319 1.726 1.726 0 0 1 2.355-.539l27.938 17.13c2.229 1.219 5.076 1.203 7.363-.082l27.245-17.04a1.724 1.724 0 0 1 2.361.519 1.669 1.669 0 0 1-.526 2.324L42.845 36.49a11.308 11.308 0 0 1-5.544 1.453z"/><path fill="#363636" d="M55.299 20.045H18.816c-.944 0-1.71-.754-1.71-1.684s.766-1.684 1.71-1.684h36.482c.944 0 1.71.754 1.71 1.684s-.765 1.684-1.709 1.684zM55.299 13.071H18.816c-.944 0-1.71-.754-1.71-1.684s.766-1.684 1.71-1.684h36.482c.944 0 1.71.754 1.71 1.684s-.765 1.684-1.709 1.684zM55.299 6.098H18.817c-.944 0-1.71-.754-1.71-1.684s.766-1.684 1.71-1.684h36.482c.945 0 1.711.754 1.711 1.684s-.766 1.684-1.711 1.684z"/></svg><svg id="twitter" viewBox="-5 -5 26 26" width="26" height="26" x="267" y="247"><style>.gst0{fill:#fff}</style><path class="gst0" d="M13.1 5.4v.3c0 1.2-.3 2.4-.8 3.5-.6 1.1-1.4 2.1-2.6 2.8-1.2.8-2.5 1.2-4.1 1.2-1.5 0-2.8-.4-4.1-1.2h.6c1.2 0 2.3-.4 3.3-1.1-.6 0-1.1-.2-1.6-.5s-.6-.8-.8-1.3c.1 0 .2.1.5.1.2 0 .5 0 .7-.1-.6-.1-1.1-.4-1.5-.9-.4-.5-.6-1-.6-1.7.3.2.7.3 1.2.3-.8-.6-1.2-1.3-1.2-2.2 0-.4.1-.9.4-1.3C3.9 5 5.7 5.9 7.9 6c0-.2-.1-.4-.1-.6 0-.7.3-1.3.8-1.9.5-.5 1.2-.7 1.9-.7.8 0 1.4.3 1.9.8.5-.1 1.1-.3 1.7-.6-.2.6-.6 1.1-1.1 1.5.5-.1 1-.2 1.5-.4-.4.4-.8.9-1.4 1.3z"/></svg></svg>