<?xml version="1.0" encoding="utf-8"?><svg width="127" height="127" viewBox="0 0 127 127" xmlns="http://www.w3.org/2000/svg" xmlns:xlink="http://www.w3.org/1999/xlink"><svg id="facebook" viewBox="-5 -5 26 26" width="26" height="26"><style>.ast0{fill:#fff}</style><path class="ast0" d="M9.5 3.9c-.1 0-.3.1-.4.2 0 .2-.1.3-.1.5V6h2.5v2.1H9v6.2H6.6V8.1H4.5V6h2.1V4.8c0-.9.3-1.6.8-2.2.6-.6 1.3-.9 2.1-.9h2v2.2h-2z"/></svg><svg id="instagram" viewBox="-5 -5 26 26" width="26" height="26" x="26" y="26"><style>.bst0{fill:#fff}</style><path class="bst0" d="M12.1 2c.5 0 1 .2 1.3.5.4.4.6.8.6 1.4v2h-3c-.7-1-1.7-1.5-3-1.5s-2.3.5-3 1.5H2v-2c0-.5.2-1 .6-1.3.3-.4.7-.6 1.3-.6h8.2zM3.9 14c-.5 0-1-.2-1.3-.6-.4-.3-.6-.8-.6-1.3V7.3h2.4c0 .3-.1.5-.1.7 0 1 .4 1.9 1.1 2.6.7.7 1.6 1 2.6 1s1.8-.4 2.6-1.1 1-1.5 1-2.5c0-.2 0-.5-.1-.7H14v4.8c0 .5-.2 1-.6 1.3-.4.4-.8.6-1.3.6H3.9zm5.7-4.4c-.4.4-1 .7-1.6.7-.6 0-1.1-.2-1.6-.7-.4-.5-.6-1-.6-1.6 0-.6.2-1.2.7-1.6.4-.4.9-.6 1.5-.6s1.1.2 1.6.6c.4.4.7 1 .7 1.6-.1.6-.3 1.1-.7 1.6zm1.8-5.3c0 .1 0 .2.1.2.1.1.1.1.2.1h1c.2 0 .3-.1.3-.3v-1c0-.2-.1-.3-.3-.3h-1c-.2 0-.3.1-.3.3v1z"/></svg><svg id="technology_clock" viewBox="-5 -5 49 49" width="49" height="49" x="52" y="52"><style>.cst0{fill:#c5aea4}.cst1{fill:#fff}.cst2{fill:none;stroke:#c5aea4;stroke-width:1.5;stroke-miterlimit:10}</style><circle class="cst0" cx="19.5" cy="19.5" r="19.2"/><circle class="cst1" cx="19.5" cy="19.5" r="15.5"/><path class="cst2" d="M5.4 19.5h4.7M29.1 19.5h4.6M19.5 33.1v-4.7M19.5 10.6V5.9M13 15.5l6.7 4.9M26.4 11.2L19.2 21"/></svg><svg id="twitter" viewBox="-5 -5 26 26" width="26" height="26" x="101" y="101"><style>.dst0{fill:#fff}</style><path class="dst0" d="M13.1 5.4v.3c0 1.2-.3 2.4-.8 3.5-.6 1.1-1.4 2.1-2.6 2.8-1.2.8-2.5 1.2-4.1 1.2-1.5 0-2.8-.4-4.1-1.2h.6c1.2 0 2.3-.4 3.3-1.1-.6 0-1.1-.2-1.6-.5s-.6-.8-.8-1.3c.1 0 .2.1.5.1.2 0 .5 0 .7-.1-.6-.1-1.1-.4-1.5-.9-.4-.5-.6-1-.6-1.7.3.2.7.3 1.2.3-.8-.6-1.2-1.3-1.2-2.2 0-.4.1-.9.4-1.3C3.9 5 5.7 5.9 7.9 6c0-.2-.1-.4-.1-.6 0-.7.3-1.3.8-1.9.5-.5 1.2-.7 1.9-.7.8 0 1.4.3 1.9.8.5-.1 1.1-.3 1.7-.6-.2.6-.6 1.1-1.1 1.5.5-.1 1-.2 1.5-.4-.4.4-.8.9-1.4 1.3z"/></svg></svg>