<?xml version="1.0" encoding="utf-8"?>
<!-- Generator: Adobe Illustrator 16.0.3, SVG Export Plug-In . SVG Version: 6.00 Build 0)  -->
<!DOCTYPE svg PUBLIC "-//W3C//DTD SVG 1.1//EN" "http://www.w3.org/Graphics/SVG/1.1/DTD/svg11.dtd">
<svg version="1.1" id="Шар_1" xmlns="http://www.w3.org/2000/svg" xmlns:xlink="http://www.w3.org/1999/xlink" x="0px" y="0px"
	 width="80px" height="60px" viewBox="0 0 80 60" enable-background="new 0 0 80 60" xml:space="preserve">
<g>
	<path fill="#CCE3F7" d="M70.4,13.101c5.122,0,8.454,4.088,8.454,9.132v26.254c0,5.043-2.512,8.783-7.634,8.783H21.366
		c-5.123,0-10.917-3.74-10.917-8.783V22.232c0-5.044,4.563-9.132,9.685-9.132l0,0"/>
	<path fill="#FFFFFF" d="M78.386,19.66L49.931,36.74c-2.818,1.586-6.277,1.605-9.115,0.049L12.878,19.66l0,0"/>
	<path fill="#363636" d="M63.057,57.27H13.202c-5.927,0-12.057-3.705-12.057-9.904V21.11c0-5.862,5.152-10.815,11.253-10.815
		c0.944,0,1.71,0.754,1.71,1.684c0,0.931-0.766,1.684-1.71,1.684c-4.246,0-7.833,3.411-7.833,7.448v26.255
		c0,4.037,4.482,6.537,8.637,6.537h49.854c4.127,0,6.494-2.383,6.494-6.537V21.11c0-4.246-3.021-7.448-7.03-7.448
		c-0.944,0-1.71-0.753-1.71-1.684c0-0.93,0.766-1.684,1.71-1.684c5.958,0,10.45,4.649,10.45,10.815v26.255
		C72.971,53.381,69.079,57.27,63.057,57.27z"/>
	<path fill="#363636" d="M37.301,37.943c-1.844,0-3.679-0.453-5.321-1.354L3.971,19.418c-0.802-0.491-1.047-1.53-0.548-2.319
		c0.5-0.791,1.554-1.028,2.355-0.539l27.938,17.13c2.229,1.219,5.076,1.203,7.363-0.082l27.245-17.04
		c0.8-0.499,1.854-0.268,2.361,0.519c0.506,0.785,0.271,1.826-0.526,2.324L42.845,36.49C41.123,37.459,39.208,37.943,37.301,37.943z
		"/>
	<path fill="#363636" d="M55.299,20.045H18.816c-0.944,0-1.71-0.754-1.71-1.684s0.766-1.684,1.71-1.684h36.482
		c0.944,0,1.71,0.754,1.71,1.684S56.243,20.045,55.299,20.045z"/>
	<path fill="#363636" d="M55.299,13.071H18.816c-0.944,0-1.71-0.754-1.71-1.684s0.766-1.684,1.71-1.684h36.482
		c0.944,0,1.71,0.754,1.71,1.684S56.243,13.071,55.299,13.071z"/>
	<path fill="#363636" d="M55.299,6.098H18.817c-0.944,0-1.71-0.754-1.71-1.684s0.766-1.684,1.71-1.684h36.482
		c0.945,0,1.711,0.754,1.711,1.684S56.244,6.098,55.299,6.098z"/>
</g>
</svg>
