<?xml version="1.0" encoding="utf-8"?>
<!-- Generator: Adobe Illustrator 19.2.1, SVG Export Plug-In . SVG Version: 6.00 Build 0)  -->
<svg version="1.1" id="Layer_1" xmlns="http://www.w3.org/2000/svg" xmlns:xlink="http://www.w3.org/1999/xlink" x="0px" y="0px"
	 viewBox="0 0 16 16" style="enable-background:new 0 0 16 16;" xml:space="preserve">
<style type="text/css">
	.st0{fill:#FFFFFF;}
</style>
<g>
	<path class="st0" d="M12.1,2c0.5,0,1,0.2,1.3,0.5C13.8,2.9,14,3.3,14,3.9v2H11c-0.7-1-1.7-1.5-3-1.5c-1.3,0-2.3,0.5-3,1.5H2v-2
		c0-0.5,0.2-1,0.6-1.3C2.9,2.2,3.3,2,3.9,2H12.1z M3.9,14c-0.5,0-1-0.2-1.3-0.6C2.2,13.1,2,12.6,2,12.1V7.3h2.4
		c0,0.3-0.1,0.5-0.1,0.7c0,1,0.4,1.9,1.1,2.6C6.1,11.3,7,11.6,8,11.6c1,0,1.8-0.4,2.6-1.1S11.6,9,11.6,8c0-0.2,0-0.5-0.1-0.7H14v4.8
		c0,0.5-0.2,1-0.6,1.3c-0.4,0.4-0.8,0.6-1.3,0.6H3.9z M9.6,9.6c-0.4,0.4-1,0.7-1.6,0.7c-0.6,0-1.1-0.2-1.6-0.7C6,9.1,5.8,8.6,5.8,8
		c0-0.6,0.2-1.2,0.7-1.6C6.9,6,7.4,5.8,8,5.8S9.1,6,9.6,6.4c0.4,0.4,0.7,1,0.7,1.6C10.2,8.6,10,9.1,9.6,9.6z M11.4,4.3
		c0,0.1,0,0.2,0.1,0.2c0.1,0.1,0.1,0.1,0.2,0.1h1c0.2,0,0.3-0.1,0.3-0.3v-1C13,3.1,12.9,3,12.7,3h-1c-0.2,0-0.3,0.1-0.3,0.3V4.3z"/>
</g>
</svg>
