<?xml version="1.0" encoding="utf-8"?>
<!-- Generator: Adobe Illustrator 19.2.1, SVG Export Plug-In . SVG Version: 6.00 Build 0)  -->
<svg version="1.1" id="Layer_1" xmlns="http://www.w3.org/2000/svg" xmlns:xlink="http://www.w3.org/1999/xlink" x="0px" y="0px"
	 viewBox="0 0 16 16" style="enable-background:new 0 0 16 16;" xml:space="preserve">
<style type="text/css">
	.st0{fill:#FFFFFF;}
</style>
<g>
	<path class="st0" d="M13.1,5.4v0.3c0,1.2-0.3,2.4-0.8,3.5c-0.6,1.1-1.4,2.1-2.6,2.8c-1.2,0.8-2.5,1.2-4.1,1.2
		c-1.5,0-2.8-0.4-4.1-1.2c0.2,0,0.4,0,0.6,0c1.2,0,2.3-0.4,3.3-1.1c-0.6,0-1.1-0.2-1.6-0.5S3.2,9.6,3,9.1c0.1,0,0.2,0.1,0.5,0.1
		c0.2,0,0.5,0,0.7-0.1C3.6,9,3.1,8.7,2.7,8.2c-0.4-0.5-0.6-1-0.6-1.7v0c0.3,0.2,0.7,0.3,1.2,0.3C2.5,6.2,2.1,5.5,2.1,4.6
		c0-0.4,0.1-0.9,0.4-1.3C3.9,5,5.7,5.9,7.9,6C7.9,5.8,7.8,5.6,7.8,5.4c0-0.7,0.3-1.3,0.8-1.9C9.1,3,9.8,2.8,10.5,2.8
		c0.8,0,1.4,0.3,1.9,0.8c0.5-0.1,1.1-0.3,1.7-0.6c-0.2,0.6-0.6,1.1-1.1,1.5c0.5-0.1,1-0.2,1.5-0.4C14.1,4.5,13.7,5,13.1,5.4z"/>
</g>
</svg>
